<svg xmlns="http://www.w3.org/2000/svg" xmlns:xlink="http://www.w3.org/1999/xlink" width="1123" zoomAndPan="magnify" viewBox="0 0 842.25 595.499986" height="794" preserveAspectRatio="xMidYMid meet" version="1.0"><defs><g/><clipPath id="14aa21fcdc"><path d="M 0 0.015625 L 841.5 0.015625 L 841.5 594.984375 L 0 594.984375 Z M 0 0.015625 " clip-rule="nonzero"/></clipPath><clipPath id="e2cebe06b6"><path d="M 0 0.015625 L 841.5 0.015625 L 841.5 594.984375 L 0 594.984375 Z M 0 0.015625 " clip-rule="nonzero"/></clipPath><clipPath id="23d7f9836c"><path d="M 51 139 L 809 139 L 809 356 L 51 356 Z M 51 139 " clip-rule="nonzero"/></clipPath><clipPath id="13da5cf766"><path d="M 354.199219 160.558594 L 354.199219 334.28125 C 354.199219 346.070312 344.445312 355.804688 332.636719 355.804688 C 320.828125 355.804688 311.070312 346.070312 311.070312 334.28125 L 311.070312 160.558594 C 311.070312 148.773438 320.828125 139.292969 332.636719 139.292969 C 344.445312 139.292969 354.199219 148.773438 354.199219 160.558594 Z M 462.535156 139.546875 C 426.59375 139.546875 397.585938 168.503906 397.585938 204.375 L 397.585938 334.28125 C 397.585938 346.070312 407.339844 355.804688 419.148438 355.804688 C 430.960938 355.804688 440.714844 346.070312 440.714844 334.28125 L 440.714844 204.375 C 440.714844 192.589844 450.46875 182.59375 462.277344 182.59375 L 537.496094 182.59375 C 549.308594 182.59375 559.0625 172.859375 559.0625 161.070312 C 559.0625 149.285156 549.308594 139.292969 537.496094 139.292969 L 462.535156 139.546875 M 787.03125 139.546875 L 614.257812 139.546875 C 602.449219 139.546875 592.691406 149.285156 592.691406 161.070312 C 592.691406 172.859375 602.449219 182.59375 614.257812 182.59375 L 657.644531 182.59375 C 669.453125 182.59375 679.207031 192.332031 679.207031 204.117188 L 679.207031 334.28125 C 679.207031 346.070312 688.960938 355.804688 700.773438 355.804688 C 712.582031 355.804688 722.335938 346.070312 722.335938 334.28125 L 722.335938 204.117188 C 722.335938 192.332031 732.089844 182.59375 743.902344 182.59375 L 787.285156 182.59375 C 799.097656 182.59375 808.851562 172.859375 808.851562 161.070312 C 808.851562 149.285156 798.839844 139.546875 787.03125 139.546875 Z M 201.964844 225.898438 L 116.21875 225.898438 C 104.15625 225.898438 94.398438 216.160156 94.398438 204.117188 C 94.398438 192.074219 104.15625 182.339844 116.21875 182.339844 L 242.527344 182.339844 C 254.335938 182.339844 264.089844 172.601562 264.089844 160.816406 C 264.089844 149.027344 254.335938 139.292969 242.527344 139.292969 L 116.21875 139.292969 C 80.28125 139.546875 51.269531 168.757812 51.269531 204.375 C 51.269531 239.992188 80.28125 269.199219 116.21875 269.199219 L 203.761719 269.199219 C 215.828125 269.199219 225.582031 278.9375 225.582031 290.980469 C 225.582031 303.023438 215.828125 312.757812 203.761719 312.757812 L 73.347656 312.757812 C 61.539062 312.757812 51.785156 322.496094 51.785156 334.28125 C 51.785156 346.070312 61.539062 355.804688 73.347656 355.804688 L 201.964844 355.804688 C 237.648438 355.550781 266.914062 326.597656 266.914062 290.722656 C 266.914062 254.851562 237.90625 225.898438 201.964844 225.898438 Z M 201.964844 225.898438 " clip-rule="nonzero"/></clipPath><linearGradient x1="2" gradientTransform="matrix(2.567201, 0, 0, -2.562291, 46.13564, -2145.245994)" y1="-933.79999" x2="297.09998" gradientUnits="userSpaceOnUse" y2="-933.79999" id="5ef756cfe2"><stop stop-opacity="1" stop-color="rgb(75.689697%, 83.139038%, 18.429565%)" offset="0"/><stop stop-opacity="1" stop-color="rgb(75.244141%, 83.035278%, 18.661499%)" offset="0.00390625"/><stop stop-opacity="1" stop-color="rgb(74.80011%, 82.933044%, 18.894958%)" offset="0.0078125"/><stop stop-opacity="1" stop-color="rgb(74.354553%, 82.829285%, 19.126892%)" offset="0.0117188"/><stop stop-opacity="1" stop-color="rgb(73.910522%, 82.727051%, 19.360352%)" offset="0.015625"/><stop stop-opacity="1" stop-color="rgb(73.464966%, 82.623291%, 19.592285%)" offset="0.0195312"/><stop stop-opacity="1" stop-color="rgb(73.019409%, 82.521057%, 19.825745%)" offset="0.0234375"/><stop stop-opacity="1" stop-color="rgb(72.573853%, 82.417297%, 20.057678%)" offset="0.0273437"/><stop stop-opacity="1" stop-color="rgb(72.129822%, 82.313538%, 20.291138%)" offset="0.03125"/><stop stop-opacity="1" stop-color="rgb(71.684265%, 82.209778%, 20.523071%)" offset="0.0351562"/><stop stop-opacity="1" stop-color="rgb(71.240234%, 82.107544%, 20.756531%)" offset="0.0390625"/><stop stop-opacity="1" stop-color="rgb(70.794678%, 82.003784%, 20.988464%)" offset="0.0429688"/><stop stop-opacity="1" stop-color="rgb(70.350647%, 81.90155%, 21.221924%)" offset="0.046875"/><stop stop-opacity="1" stop-color="rgb(69.90509%, 81.797791%, 21.453857%)" offset="0.0507812"/><stop stop-opacity="1" stop-color="rgb(69.46106%, 81.695557%, 21.687317%)" offset="0.0546875"/><stop stop-opacity="1" stop-color="rgb(69.015503%, 81.591797%, 21.91925%)" offset="0.0585937"/><stop stop-opacity="1" stop-color="rgb(68.571472%, 81.489563%, 22.15271%)" offset="0.0625"/><stop stop-opacity="1" stop-color="rgb(68.125916%, 81.385803%, 22.384644%)" offset="0.0664062"/><stop stop-opacity="1" stop-color="rgb(67.681885%, 81.282043%, 22.618103%)" offset="0.0703125"/><stop stop-opacity="1" stop-color="rgb(67.236328%, 81.178284%, 22.850037%)" offset="0.0742188"/><stop stop-opacity="1" stop-color="rgb(66.792297%, 81.07605%, 23.083496%)" offset="0.078125"/><stop stop-opacity="1" stop-color="rgb(66.346741%, 80.97229%, 23.31543%)" offset="0.0820312"/><stop stop-opacity="1" stop-color="rgb(65.90271%, 80.870056%, 23.548889%)" offset="0.0859375"/><stop stop-opacity="1" stop-color="rgb(65.457153%, 80.766296%, 23.780823%)" offset="0.0898438"/><stop stop-opacity="1" stop-color="rgb(65.013123%, 80.664062%, 24.014282%)" offset="0.09375"/><stop stop-opacity="1" stop-color="rgb(64.567566%, 80.560303%, 24.246216%)" offset="0.0976562"/><stop stop-opacity="1" stop-color="rgb(64.123535%, 80.458069%, 24.479675%)" offset="0.101562"/><stop stop-opacity="1" stop-color="rgb(63.677979%, 80.354309%, 24.711609%)" offset="0.105469"/><stop stop-opacity="1" stop-color="rgb(63.232422%, 80.252075%, 24.945068%)" offset="0.109375"/><stop stop-opacity="1" stop-color="rgb(62.786865%, 80.148315%, 25.177002%)" offset="0.113281"/><stop stop-opacity="1" stop-color="rgb(62.342834%, 80.044556%, 25.410461%)" offset="0.117187"/><stop stop-opacity="1" stop-color="rgb(61.897278%, 79.940796%, 25.642395%)" offset="0.121094"/><stop stop-opacity="1" stop-color="rgb(61.453247%, 79.838562%, 25.875854%)" offset="0.125"/><stop stop-opacity="1" stop-color="rgb(61.00769%, 79.734802%, 26.107788%)" offset="0.128906"/><stop stop-opacity="1" stop-color="rgb(60.56366%, 79.632568%, 26.341248%)" offset="0.132812"/><stop stop-opacity="1" stop-color="rgb(60.118103%, 79.528809%, 26.573181%)" offset="0.136719"/><stop stop-opacity="1" stop-color="rgb(59.674072%, 79.426575%, 26.806641%)" offset="0.140625"/><stop stop-opacity="1" stop-color="rgb(59.228516%, 79.322815%, 27.038574%)" offset="0.144531"/><stop stop-opacity="1" stop-color="rgb(58.784485%, 79.220581%, 27.272034%)" offset="0.148438"/><stop stop-opacity="1" stop-color="rgb(58.338928%, 79.116821%, 27.503967%)" offset="0.152344"/><stop stop-opacity="1" stop-color="rgb(57.894897%, 79.013062%, 27.737427%)" offset="0.15625"/><stop stop-opacity="1" stop-color="rgb(57.449341%, 78.909302%, 27.96936%)" offset="0.160156"/><stop stop-opacity="1" stop-color="rgb(57.00531%, 78.807068%, 28.20282%)" offset="0.164062"/><stop stop-opacity="1" stop-color="rgb(56.559753%, 78.703308%, 28.436279%)" offset="0.167969"/><stop stop-opacity="1" stop-color="rgb(56.115723%, 78.601074%, 28.669739%)" offset="0.171875"/><stop stop-opacity="1" stop-color="rgb(55.670166%, 78.497314%, 28.901672%)" offset="0.175781"/><stop stop-opacity="1" stop-color="rgb(55.226135%, 78.395081%, 29.135132%)" offset="0.179688"/><stop stop-opacity="1" stop-color="rgb(54.780579%, 78.291321%, 29.367065%)" offset="0.183594"/><stop stop-opacity="1" stop-color="rgb(54.336548%, 78.189087%, 29.600525%)" offset="0.1875"/><stop stop-opacity="1" stop-color="rgb(53.890991%, 78.085327%, 29.832458%)" offset="0.191406"/><stop stop-opacity="1" stop-color="rgb(53.445435%, 77.981567%, 30.065918%)" offset="0.195312"/><stop stop-opacity="1" stop-color="rgb(52.999878%, 77.877808%, 30.297852%)" offset="0.199219"/><stop stop-opacity="1" stop-color="rgb(52.555847%, 77.775574%, 30.531311%)" offset="0.203125"/><stop stop-opacity="1" stop-color="rgb(52.110291%, 77.671814%, 30.763245%)" offset="0.207031"/><stop stop-opacity="1" stop-color="rgb(51.66626%, 77.56958%, 30.996704%)" offset="0.210937"/><stop stop-opacity="1" stop-color="rgb(51.220703%, 77.46582%, 31.228638%)" offset="0.214844"/><stop stop-opacity="1" stop-color="rgb(50.776672%, 77.363586%, 31.462097%)" offset="0.21875"/><stop stop-opacity="1" stop-color="rgb(50.331116%, 77.259827%, 31.694031%)" offset="0.222656"/><stop stop-opacity="1" stop-color="rgb(49.887085%, 77.157593%, 31.92749%)" offset="0.226562"/><stop stop-opacity="1" stop-color="rgb(49.441528%, 77.053833%, 32.159424%)" offset="0.230469"/><stop stop-opacity="1" stop-color="rgb(48.997498%, 76.950073%, 32.392883%)" offset="0.234375"/><stop stop-opacity="1" stop-color="rgb(48.551941%, 76.846313%, 32.624817%)" offset="0.238281"/><stop stop-opacity="1" stop-color="rgb(48.10791%, 76.74408%, 32.858276%)" offset="0.242188"/><stop stop-opacity="1" stop-color="rgb(47.662354%, 76.64032%, 33.09021%)" offset="0.246094"/><stop stop-opacity="1" stop-color="rgb(47.218323%, 76.538086%, 33.323669%)" offset="0.25"/><stop stop-opacity="1" stop-color="rgb(46.772766%, 76.434326%, 33.555603%)" offset="0.253906"/><stop stop-opacity="1" stop-color="rgb(46.328735%, 76.332092%, 33.789062%)" offset="0.257812"/><stop stop-opacity="1" stop-color="rgb(45.883179%, 76.228333%, 34.020996%)" offset="0.261719"/><stop stop-opacity="1" stop-color="rgb(45.439148%, 76.126099%, 34.254456%)" offset="0.265625"/><stop stop-opacity="1" stop-color="rgb(44.993591%, 76.022339%, 34.486389%)" offset="0.269531"/><stop stop-opacity="1" stop-color="rgb(44.549561%, 75.920105%, 34.719849%)" offset="0.273438"/><stop stop-opacity="1" stop-color="rgb(44.104004%, 75.816345%, 34.951782%)" offset="0.277344"/><stop stop-opacity="1" stop-color="rgb(43.658447%, 75.712585%, 35.185242%)" offset="0.28125"/><stop stop-opacity="1" stop-color="rgb(43.212891%, 75.608826%, 35.417175%)" offset="0.285156"/><stop stop-opacity="1" stop-color="rgb(42.76886%, 75.506592%, 35.650635%)" offset="0.289063"/><stop stop-opacity="1" stop-color="rgb(42.323303%, 75.402832%, 35.882568%)" offset="0.292969"/><stop stop-opacity="1" stop-color="rgb(41.879272%, 75.300598%, 36.116028%)" offset="0.296875"/><stop stop-opacity="1" stop-color="rgb(41.433716%, 75.196838%, 36.347961%)" offset="0.300781"/><stop stop-opacity="1" stop-color="rgb(40.989685%, 75.094604%, 36.581421%)" offset="0.304688"/><stop stop-opacity="1" stop-color="rgb(40.544128%, 74.990845%, 36.813354%)" offset="0.308594"/><stop stop-opacity="1" stop-color="rgb(40.100098%, 74.888611%, 37.046814%)" offset="0.3125"/><stop stop-opacity="1" stop-color="rgb(39.654541%, 74.784851%, 37.278748%)" offset="0.316406"/><stop stop-opacity="1" stop-color="rgb(39.21051%, 74.681091%, 37.512207%)" offset="0.320313"/><stop stop-opacity="1" stop-color="rgb(38.764954%, 74.577332%, 37.744141%)" offset="0.324219"/><stop stop-opacity="1" stop-color="rgb(38.320923%, 74.475098%, 37.9776%)" offset="0.328125"/><stop stop-opacity="1" stop-color="rgb(37.875366%, 74.371338%, 38.209534%)" offset="0.332031"/><stop stop-opacity="1" stop-color="rgb(37.431335%, 74.269104%, 38.442993%)" offset="0.335937"/><stop stop-opacity="1" stop-color="rgb(36.985779%, 74.165344%, 38.674927%)" offset="0.339844"/><stop stop-opacity="1" stop-color="rgb(36.541748%, 74.06311%, 38.908386%)" offset="0.34375"/><stop stop-opacity="1" stop-color="rgb(36.096191%, 73.959351%, 39.14032%)" offset="0.347656"/><stop stop-opacity="1" stop-color="rgb(35.652161%, 73.857117%, 39.373779%)" offset="0.351562"/><stop stop-opacity="1" stop-color="rgb(35.206604%, 73.753357%, 39.605713%)" offset="0.355469"/><stop stop-opacity="1" stop-color="rgb(34.762573%, 73.649597%, 39.839172%)" offset="0.359375"/><stop stop-opacity="1" stop-color="rgb(34.317017%, 73.545837%, 40.071106%)" offset="0.363281"/><stop stop-opacity="1" stop-color="rgb(33.872986%, 73.443604%, 40.304565%)" offset="0.367187"/><stop stop-opacity="1" stop-color="rgb(33.427429%, 73.339844%, 40.536499%)" offset="0.371094"/><stop stop-opacity="1" stop-color="rgb(32.981873%, 73.23761%, 40.769958%)" offset="0.375"/><stop stop-opacity="1" stop-color="rgb(32.536316%, 73.13385%, 41.001892%)" offset="0.378906"/><stop stop-opacity="1" stop-color="rgb(32.092285%, 73.031616%, 41.235352%)" offset="0.382812"/><stop stop-opacity="1" stop-color="rgb(31.646729%, 72.927856%, 41.467285%)" offset="0.386719"/><stop stop-opacity="1" stop-color="rgb(31.202698%, 72.825623%, 41.700745%)" offset="0.390625"/><stop stop-opacity="1" stop-color="rgb(30.757141%, 72.721863%, 41.934204%)" offset="0.394531"/><stop stop-opacity="1" stop-color="rgb(30.31311%, 72.619629%, 42.167664%)" offset="0.398437"/><stop stop-opacity="1" stop-color="rgb(29.867554%, 72.515869%, 42.399597%)" offset="0.402344"/><stop stop-opacity="1" stop-color="rgb(29.423523%, 72.412109%, 42.633057%)" offset="0.40625"/><stop stop-opacity="1" stop-color="rgb(28.977966%, 72.30835%, 42.86499%)" offset="0.410156"/><stop stop-opacity="1" stop-color="rgb(28.533936%, 72.206116%, 43.09845%)" offset="0.414062"/><stop stop-opacity="1" stop-color="rgb(28.088379%, 72.102356%, 43.330383%)" offset="0.417969"/><stop stop-opacity="1" stop-color="rgb(27.644348%, 72.000122%, 43.563843%)" offset="0.421875"/><stop stop-opacity="1" stop-color="rgb(27.198792%, 71.896362%, 43.795776%)" offset="0.425781"/><stop stop-opacity="1" stop-color="rgb(26.754761%, 71.794128%, 44.029236%)" offset="0.429687"/><stop stop-opacity="1" stop-color="rgb(26.309204%, 71.690369%, 44.261169%)" offset="0.433594"/><stop stop-opacity="1" stop-color="rgb(25.865173%, 71.588135%, 44.494629%)" offset="0.4375"/><stop stop-opacity="1" stop-color="rgb(25.419617%, 71.484375%, 44.726562%)" offset="0.441406"/><stop stop-opacity="1" stop-color="rgb(24.975586%, 71.380615%, 44.960022%)" offset="0.445312"/><stop stop-opacity="1" stop-color="rgb(24.530029%, 71.276855%, 45.191956%)" offset="0.449219"/><stop stop-opacity="1" stop-color="rgb(24.085999%, 71.174622%, 45.425415%)" offset="0.453125"/><stop stop-opacity="1" stop-color="rgb(23.640442%, 71.070862%, 45.657349%)" offset="0.457031"/><stop stop-opacity="1" stop-color="rgb(23.194885%, 70.968628%, 45.890808%)" offset="0.460937"/><stop stop-opacity="1" stop-color="rgb(22.749329%, 70.864868%, 46.122742%)" offset="0.464844"/><stop stop-opacity="1" stop-color="rgb(22.305298%, 70.762634%, 46.356201%)" offset="0.46875"/><stop stop-opacity="1" stop-color="rgb(21.859741%, 70.658875%, 46.588135%)" offset="0.472656"/><stop stop-opacity="1" stop-color="rgb(21.41571%, 70.556641%, 46.821594%)" offset="0.476562"/><stop stop-opacity="1" stop-color="rgb(20.970154%, 70.452881%, 47.053528%)" offset="0.480469"/><stop stop-opacity="1" stop-color="rgb(20.526123%, 70.349121%, 47.286987%)" offset="0.484375"/><stop stop-opacity="1" stop-color="rgb(20.080566%, 70.245361%, 47.518921%)" offset="0.488281"/><stop stop-opacity="1" stop-color="rgb(19.636536%, 70.143127%, 47.75238%)" offset="0.492188"/><stop stop-opacity="1" stop-color="rgb(19.190979%, 70.039368%, 47.984314%)" offset="0.496094"/><stop stop-opacity="1" stop-color="rgb(18.746948%, 69.937134%, 48.217773%)" offset="0.5"/><stop stop-opacity="1" stop-color="rgb(18.301392%, 69.833374%, 48.449707%)" offset="0.503906"/><stop stop-opacity="1" stop-color="rgb(17.857361%, 69.73114%, 48.683167%)" offset="0.507812"/><stop stop-opacity="1" stop-color="rgb(17.411804%, 69.62738%, 48.9151%)" offset="0.511719"/><stop stop-opacity="1" stop-color="rgb(16.967773%, 69.525146%, 49.14856%)" offset="0.515625"/><stop stop-opacity="1" stop-color="rgb(16.668701%, 69.358826%, 49.259949%)" offset="0.519531"/><stop stop-opacity="1" stop-color="rgb(16.371155%, 69.192505%, 49.372864%)" offset="0.523438"/><stop stop-opacity="1" stop-color="rgb(16.259766%, 68.946838%, 49.331665%)" offset="0.527344"/><stop stop-opacity="1" stop-color="rgb(16.148376%, 68.701172%, 49.290466%)" offset="0.53125"/><stop stop-opacity="1" stop-color="rgb(16.035461%, 68.455505%, 49.247742%)" offset="0.535156"/><stop stop-opacity="1" stop-color="rgb(15.924072%, 68.209839%, 49.206543%)" offset="0.539062"/><stop stop-opacity="1" stop-color="rgb(15.812683%, 67.964172%, 49.165344%)" offset="0.542969"/><stop stop-opacity="1" stop-color="rgb(15.701294%, 67.718506%, 49.124146%)" offset="0.546875"/><stop stop-opacity="1" stop-color="rgb(15.589905%, 67.472839%, 49.081421%)" offset="0.550781"/><stop stop-opacity="1" stop-color="rgb(15.478516%, 67.227173%, 49.040222%)" offset="0.554688"/><stop stop-opacity="1" stop-color="rgb(15.365601%, 66.981506%, 48.999023%)" offset="0.558594"/><stop stop-opacity="1" stop-color="rgb(15.254211%, 66.73584%, 48.957825%)" offset="0.5625"/><stop stop-opacity="1" stop-color="rgb(15.142822%, 66.490173%, 48.916626%)" offset="0.566406"/><stop stop-opacity="1" stop-color="rgb(15.031433%, 66.244507%, 48.875427%)" offset="0.570313"/><stop stop-opacity="1" stop-color="rgb(14.918518%, 65.99884%, 48.832703%)" offset="0.574219"/><stop stop-opacity="1" stop-color="rgb(14.807129%, 65.753174%, 48.791504%)" offset="0.578125"/><stop stop-opacity="1" stop-color="rgb(14.69574%, 65.507507%, 48.750305%)" offset="0.582031"/><stop stop-opacity="1" stop-color="rgb(14.584351%, 65.261841%, 48.709106%)" offset="0.585938"/><stop stop-opacity="1" stop-color="rgb(14.472961%, 65.016174%, 48.666382%)" offset="0.589844"/><stop stop-opacity="1" stop-color="rgb(14.361572%, 64.770508%, 48.625183%)" offset="0.59375"/><stop stop-opacity="1" stop-color="rgb(14.248657%, 64.524841%, 48.583984%)" offset="0.597656"/><stop stop-opacity="1" stop-color="rgb(14.137268%, 64.279175%, 48.542786%)" offset="0.601562"/><stop stop-opacity="1" stop-color="rgb(14.025879%, 64.033508%, 48.501587%)" offset="0.605469"/><stop stop-opacity="1" stop-color="rgb(13.91449%, 63.787842%, 48.460388%)" offset="0.609375"/><stop stop-opacity="1" stop-color="rgb(13.803101%, 63.542175%, 48.417664%)" offset="0.613281"/><stop stop-opacity="1" stop-color="rgb(13.691711%, 63.296509%, 48.376465%)" offset="0.617188"/><stop stop-opacity="1" stop-color="rgb(13.578796%, 63.050842%, 48.335266%)" offset="0.621094"/><stop stop-opacity="1" stop-color="rgb(13.467407%, 62.805176%, 48.294067%)" offset="0.625"/><stop stop-opacity="1" stop-color="rgb(13.356018%, 62.559509%, 48.251343%)" offset="0.628906"/><stop stop-opacity="1" stop-color="rgb(13.244629%, 62.313843%, 48.210144%)" offset="0.632812"/><stop stop-opacity="1" stop-color="rgb(13.13324%, 62.068176%, 48.168945%)" offset="0.636719"/><stop stop-opacity="1" stop-color="rgb(13.021851%, 61.82251%, 48.127747%)" offset="0.640625"/><stop stop-opacity="1" stop-color="rgb(12.908936%, 61.576843%, 48.086548%)" offset="0.644531"/><stop stop-opacity="1" stop-color="rgb(12.797546%, 61.331177%, 48.045349%)" offset="0.648438"/><stop stop-opacity="1" stop-color="rgb(12.686157%, 61.08551%, 48.002625%)" offset="0.652344"/><stop stop-opacity="1" stop-color="rgb(12.574768%, 60.839844%, 47.961426%)" offset="0.65625"/><stop stop-opacity="1" stop-color="rgb(12.463379%, 60.594177%, 47.920227%)" offset="0.660156"/><stop stop-opacity="1" stop-color="rgb(12.35199%, 60.348511%, 47.879028%)" offset="0.664062"/><stop stop-opacity="1" stop-color="rgb(12.239075%, 60.102844%, 47.836304%)" offset="0.667969"/><stop stop-opacity="1" stop-color="rgb(12.127686%, 59.857178%, 47.795105%)" offset="0.671875"/><stop stop-opacity="1" stop-color="rgb(12.016296%, 59.611511%, 47.753906%)" offset="0.675781"/><stop stop-opacity="1" stop-color="rgb(11.904907%, 59.365845%, 47.712708%)" offset="0.679688"/><stop stop-opacity="1" stop-color="rgb(11.793518%, 59.120178%, 47.671509%)" offset="0.683594"/><stop stop-opacity="1" stop-color="rgb(11.682129%, 58.874512%, 47.63031%)" offset="0.6875"/><stop stop-opacity="1" stop-color="rgb(11.569214%, 58.628845%, 47.587585%)" offset="0.691406"/><stop stop-opacity="1" stop-color="rgb(11.457825%, 58.383179%, 47.546387%)" offset="0.695312"/><stop stop-opacity="1" stop-color="rgb(11.346436%, 58.137512%, 47.505188%)" offset="0.699219"/><stop stop-opacity="1" stop-color="rgb(11.235046%, 57.891846%, 47.463989%)" offset="0.703125"/><stop stop-opacity="1" stop-color="rgb(11.123657%, 57.646179%, 47.421265%)" offset="0.707031"/><stop stop-opacity="1" stop-color="rgb(11.012268%, 57.400513%, 47.380066%)" offset="0.710938"/><stop stop-opacity="1" stop-color="rgb(10.899353%, 57.154846%, 47.338867%)" offset="0.714844"/><stop stop-opacity="1" stop-color="rgb(10.787964%, 56.90918%, 47.297668%)" offset="0.71875"/><stop stop-opacity="1" stop-color="rgb(10.676575%, 56.663513%, 47.25647%)" offset="0.722656"/><stop stop-opacity="1" stop-color="rgb(10.565186%, 56.417847%, 47.215271%)" offset="0.726562"/><stop stop-opacity="1" stop-color="rgb(10.453796%, 56.17218%, 47.172546%)" offset="0.730469"/><stop stop-opacity="1" stop-color="rgb(10.342407%, 55.926514%, 47.131348%)" offset="0.734375"/><stop stop-opacity="1" stop-color="rgb(10.229492%, 55.680847%, 47.090149%)" offset="0.738281"/><stop stop-opacity="1" stop-color="rgb(10.118103%, 55.435181%, 47.04895%)" offset="0.742188"/><stop stop-opacity="1" stop-color="rgb(10.006714%, 55.189514%, 47.006226%)" offset="0.746094"/><stop stop-opacity="1" stop-color="rgb(9.895325%, 54.943848%, 46.965027%)" offset="0.75"/><stop stop-opacity="1" stop-color="rgb(9.78241%, 54.698181%, 46.923828%)" offset="0.753906"/><stop stop-opacity="1" stop-color="rgb(9.671021%, 54.452515%, 46.882629%)" offset="0.757812"/><stop stop-opacity="1" stop-color="rgb(9.559631%, 54.206848%, 46.841431%)" offset="0.761719"/><stop stop-opacity="1" stop-color="rgb(9.448242%, 53.961182%, 46.800232%)" offset="0.765625"/><stop stop-opacity="1" stop-color="rgb(9.336853%, 53.713989%, 46.757507%)" offset="0.769531"/><stop stop-opacity="1" stop-color="rgb(9.225464%, 53.468323%, 46.716309%)" offset="0.773438"/><stop stop-opacity="1" stop-color="rgb(9.112549%, 53.222656%, 46.67511%)" offset="0.777344"/><stop stop-opacity="1" stop-color="rgb(9.00116%, 52.97699%, 46.633911%)" offset="0.78125"/><stop stop-opacity="1" stop-color="rgb(8.889771%, 52.731323%, 46.591187%)" offset="0.785156"/><stop stop-opacity="1" stop-color="rgb(8.778381%, 52.485657%, 46.549988%)" offset="0.789062"/><stop stop-opacity="1" stop-color="rgb(8.666992%, 52.23999%, 46.508789%)" offset="0.792969"/><stop stop-opacity="1" stop-color="rgb(8.555603%, 51.994324%, 46.46759%)" offset="0.796875"/><stop stop-opacity="1" stop-color="rgb(8.442688%, 51.748657%, 46.426392%)" offset="0.800781"/><stop stop-opacity="1" stop-color="rgb(8.331299%, 51.502991%, 46.385193%)" offset="0.804687"/><stop stop-opacity="1" stop-color="rgb(8.21991%, 51.257324%, 46.342468%)" offset="0.808594"/><stop stop-opacity="1" stop-color="rgb(8.108521%, 51.011658%, 46.30127%)" offset="0.8125"/><stop stop-opacity="1" stop-color="rgb(7.997131%, 50.765991%, 46.260071%)" offset="0.816406"/><stop stop-opacity="1" stop-color="rgb(7.885742%, 50.520325%, 46.218872%)" offset="0.820312"/><stop stop-opacity="1" stop-color="rgb(7.772827%, 50.274658%, 46.176147%)" offset="0.824219"/><stop stop-opacity="1" stop-color="rgb(7.661438%, 50.028992%, 46.134949%)" offset="0.828125"/><stop stop-opacity="1" stop-color="rgb(7.550049%, 49.783325%, 46.09375%)" offset="0.832031"/><stop stop-opacity="1" stop-color="rgb(7.43866%, 49.537659%, 46.052551%)" offset="0.835938"/><stop stop-opacity="1" stop-color="rgb(7.327271%, 49.291992%, 46.011353%)" offset="0.839844"/><stop stop-opacity="1" stop-color="rgb(7.215881%, 49.046326%, 45.970154%)" offset="0.84375"/><stop stop-opacity="1" stop-color="rgb(7.102966%, 48.800659%, 45.927429%)" offset="0.847656"/><stop stop-opacity="1" stop-color="rgb(6.991577%, 48.554993%, 45.88623%)" offset="0.851562"/><stop stop-opacity="1" stop-color="rgb(6.880188%, 48.309326%, 45.845032%)" offset="0.855469"/><stop stop-opacity="1" stop-color="rgb(6.768799%, 48.06366%, 45.803833%)" offset="0.859375"/><stop stop-opacity="1" stop-color="rgb(6.65741%, 47.817993%, 45.761108%)" offset="0.863281"/><stop stop-opacity="1" stop-color="rgb(6.546021%, 47.572327%, 45.71991%)" offset="0.867187"/><stop stop-opacity="1" stop-color="rgb(6.433105%, 47.32666%, 45.678711%)" offset="0.871094"/><stop stop-opacity="1" stop-color="rgb(6.321716%, 47.080994%, 45.637512%)" offset="0.875"/><stop stop-opacity="1" stop-color="rgb(6.210327%, 46.835327%, 45.596313%)" offset="0.878906"/><stop stop-opacity="1" stop-color="rgb(6.098938%, 46.589661%, 45.555115%)" offset="0.882812"/><stop stop-opacity="1" stop-color="rgb(5.987549%, 46.343994%, 45.51239%)" offset="0.886719"/><stop stop-opacity="1" stop-color="rgb(5.87616%, 46.098328%, 45.471191%)" offset="0.890625"/><stop stop-opacity="1" stop-color="rgb(5.763245%, 45.852661%, 45.429993%)" offset="0.894531"/><stop stop-opacity="1" stop-color="rgb(5.651855%, 45.606995%, 45.388794%)" offset="0.898438"/><stop stop-opacity="1" stop-color="rgb(5.540466%, 45.361328%, 45.346069%)" offset="0.902344"/><stop stop-opacity="1" stop-color="rgb(5.429077%, 45.115662%, 45.304871%)" offset="0.90625"/><stop stop-opacity="1" stop-color="rgb(5.317688%, 44.869995%, 45.263672%)" offset="0.910156"/><stop stop-opacity="1" stop-color="rgb(5.206299%, 44.624329%, 45.222473%)" offset="0.914062"/><stop stop-opacity="1" stop-color="rgb(5.093384%, 44.378662%, 45.181274%)" offset="0.917969"/><stop stop-opacity="1" stop-color="rgb(4.981995%, 44.132996%, 45.140076%)" offset="0.921875"/><stop stop-opacity="1" stop-color="rgb(4.870605%, 43.887329%, 45.097351%)" offset="0.925781"/><stop stop-opacity="1" stop-color="rgb(4.759216%, 43.641663%, 45.056152%)" offset="0.929687"/><stop stop-opacity="1" stop-color="rgb(4.647827%, 43.395996%, 45.014954%)" offset="0.933594"/><stop stop-opacity="1" stop-color="rgb(4.536438%, 43.15033%, 44.973755%)" offset="0.9375"/><stop stop-opacity="1" stop-color="rgb(4.423523%, 42.904663%, 44.93103%)" offset="0.941406"/><stop stop-opacity="1" stop-color="rgb(4.312134%, 42.658997%, 44.889832%)" offset="0.945312"/><stop stop-opacity="1" stop-color="rgb(4.200745%, 42.41333%, 44.848633%)" offset="0.949219"/><stop stop-opacity="1" stop-color="rgb(4.089355%, 42.167664%, 44.807434%)" offset="0.953125"/><stop stop-opacity="1" stop-color="rgb(3.97644%, 41.921997%, 44.766235%)" offset="0.957031"/><stop stop-opacity="1" stop-color="rgb(3.865051%, 41.676331%, 44.725037%)" offset="0.960938"/><stop stop-opacity="1" stop-color="rgb(3.753662%, 41.430664%, 44.682312%)" offset="0.964844"/><stop stop-opacity="1" stop-color="rgb(3.642273%, 41.184998%, 44.641113%)" offset="0.96875"/><stop stop-opacity="1" stop-color="rgb(3.530884%, 40.939331%, 44.599915%)" offset="0.972656"/><stop stop-opacity="1" stop-color="rgb(3.419495%, 40.693665%, 44.558716%)" offset="0.976562"/><stop stop-opacity="1" stop-color="rgb(3.30658%, 40.447998%, 44.515991%)" offset="0.980469"/><stop stop-opacity="1" stop-color="rgb(3.19519%, 40.202332%, 44.474792%)" offset="0.984375"/><stop stop-opacity="1" stop-color="rgb(3.083801%, 39.956665%, 44.433594%)" offset="0.988281"/><stop stop-opacity="1" stop-color="rgb(2.972412%, 39.710999%, 44.392395%)" offset="0.992188"/><stop stop-opacity="1" stop-color="rgb(2.861023%, 39.465332%, 44.351196%)" offset="0.996094"/><stop stop-opacity="1" stop-color="rgb(2.749634%, 39.219666%, 44.309998%)" offset="1"/></linearGradient><clipPath id="9e701d6790"><rect x="0" width="842" y="0" height="595"/></clipPath></defs><g clip-path="url(#14aa21fcdc)"><path fill="#ffffff" d="M 0 0.015625 L 841.5 0.015625 L 841.5 594.984375 L 0 594.984375 Z M 0 0.015625 " fill-opacity="1" fill-rule="nonzero"/><g transform="matrix(1, 0, 0, 1, 0, -0.000000000000000137)"><g clip-path="url(#9e701d6790)"><g clip-path="url(#e2cebe06b6)"><path fill="#ffffff" d="M 0 0.015625 L 841.816406 0.015625 L 841.816406 595.210938 L 0 595.210938 Z M 0 0.015625 " fill-opacity="1" fill-rule="nonzero"/></g><g clip-path="url(#23d7f9836c)"><g clip-path="url(#13da5cf766)"><path fill="url(#5ef756cfe2)" d="M 51.269531 355.804688 L 51.269531 139.292969 L 808.851562 139.292969 L 808.851562 355.804688 Z M 51.269531 355.804688 " fill-rule="nonzero"/></g></g><g fill="#ffffff" fill-opacity="1"><g transform="translate(119.884371, 459.971541)"><g><path d="M 114.9375 -80.03125 L 93.71875 0 L 72.484375 0 L 58.796875 -66.578125 L 44.421875 0 L 23.078125 0 L 3.015625 -80.03125 L 20.296875 -80.03125 L 33.75 -12.296875 L 47.90625 -78.875 L 70.40625 -78.875 L 84.09375 -12.0625 L 98.46875 -80.03125 Z M 114.9375 -80.03125 "/></g></g></g><g fill="#ffffff" fill-opacity="1"><g transform="translate(226.237374, 459.971541)"><g><path d="M 63.328125 -32.125 C 63.328125 -29.882812 63.25 -28.066406 63.09375 -26.671875 L 19.25 -26.671875 C 20.175781 -15.304688 24.929688 -9.625 33.515625 -9.625 C 36.992188 -9.625 39.875 -10.550781 42.15625 -12.40625 C 44.4375 -14.257812 45.847656 -16.8125 46.390625 -20.0625 L 62.40625 -20.0625 C 60.851562 -13.03125 57.46875 -7.65625 52.25 -3.9375 C 47.03125 -0.226562 40.671875 1.625 33.171875 1.625 C 24.273438 1.625 17.039062 -1.140625 11.46875 -6.671875 C 5.90625 -12.203125 3.125 -20.1875 3.125 -30.625 C 3.125 -40.207031 6.003906 -48.050781 11.765625 -54.15625 C 17.523438 -60.269531 25.085938 -63.328125 34.453125 -63.328125 C 43.492188 -63.328125 50.566406 -60.347656 55.671875 -54.390625 C 60.773438 -48.441406 63.328125 -41.019531 63.328125 -32.125 Z M 33.75 -52.078125 C 25.789062 -52.078125 21.113281 -47.085938 19.71875 -37.109375 L 46.859375 -37.109375 C 45.773438 -47.085938 41.40625 -52.078125 33.75 -52.078125 Z M 33.75 -52.078125 "/></g></g></g><g fill="#ffffff" fill-opacity="1"><g transform="translate(287.706356, 459.971541)"><g><path d="M 21.21875 -66.6875 L 12.171875 -66.6875 L 21.21875 -80.375 L 35.609375 -80.375 Z M 21.21875 -66.6875 "/></g></g></g><g fill="#ffffff" fill-opacity="1"><g transform="translate(316.933055, 459.971541)"><g><path d="M 38.734375 -63.21875 C 40.515625 -63.21875 42.023438 -63.0625 43.265625 -62.75 L 43.265625 -49.875 C 36.460938 -50.332031 31.4375 -48.878906 28.1875 -45.515625 C 24.9375 -42.160156 23.3125 -36.421875 23.3125 -28.296875 L 23.3125 0 L 7.3125 0 L 7.3125 -61.703125 L 23.3125 -61.703125 L 23.3125 -50.453125 L 28.1875 -59.03125 C 31.195312 -61.820312 34.710938 -63.21875 38.734375 -63.21875 Z M 38.734375 -63.21875 "/></g></g></g><g fill="#ffffff" fill-opacity="1"><g transform="translate(354.858211, 459.971541)"><g><path d="M 63.328125 -32.125 C 63.328125 -29.882812 63.25 -28.066406 63.09375 -26.671875 L 19.25 -26.671875 C 20.175781 -15.304688 24.929688 -9.625 33.515625 -9.625 C 36.992188 -9.625 39.875 -10.550781 42.15625 -12.40625 C 44.4375 -14.257812 45.847656 -16.8125 46.390625 -20.0625 L 62.40625 -20.0625 C 60.851562 -13.03125 57.46875 -7.65625 52.25 -3.9375 C 47.03125 -0.226562 40.671875 1.625 33.171875 1.625 C 24.273438 1.625 17.039062 -1.140625 11.46875 -6.671875 C 5.90625 -12.203125 3.125 -20.1875 3.125 -30.625 C 3.125 -40.207031 6.003906 -48.050781 11.765625 -54.15625 C 17.523438 -60.269531 25.085938 -63.328125 34.453125 -63.328125 C 43.492188 -63.328125 50.566406 -60.347656 55.671875 -54.390625 C 60.773438 -48.441406 63.328125 -41.019531 63.328125 -32.125 Z M 33.75 -52.078125 C 25.789062 -52.078125 21.113281 -47.085938 19.71875 -37.109375 L 46.859375 -37.109375 C 45.773438 -47.085938 41.40625 -52.078125 33.75 -52.078125 Z M 33.75 -52.078125 "/></g></g></g><g fill="#ffffff" fill-opacity="1"><g transform="translate(416.327182, 459.971541)"><g/></g></g><g fill="#ffffff" fill-opacity="1"><g transform="translate(433.270366, 459.971541)"><g><path d="M 48.828125 -63.328125 C 55.171875 -63.328125 59.890625 -61.859375 62.984375 -58.921875 C 66.078125 -55.984375 67.625 -52.191406 67.625 -47.546875 C 67.625 -45.929688 67.523438 -44.253906 67.328125 -42.515625 C 67.128906 -40.773438 66.722656 -38.359375 66.109375 -35.265625 L 59.84375 0 L 43.84375 0 L 49.640625 -32.359375 C 50.023438 -34.597656 50.332031 -36.546875 50.5625 -38.203125 C 50.800781 -39.867188 50.921875 -41.285156 50.921875 -42.453125 C 50.921875 -45.304688 50.164062 -47.625 48.65625 -49.40625 C 47.144531 -51.1875 44.570312 -52.078125 40.9375 -52.078125 C 36.914062 -52.003906 33.28125 -50.109375 30.03125 -46.390625 C 26.789062 -42.679688 24.394531 -36.535156 22.84375 -27.953125 L 17.984375 0 L 1.96875 0 L 17.046875 -85.828125 L 33.0625 -85.828125 L 27.140625 -52.3125 L 33.171875 -59.03125 C 35.648438 -60.582031 38.144531 -61.6875 40.65625 -62.34375 C 43.164062 -63 45.890625 -63.328125 48.828125 -63.328125 Z M 48.828125 -63.328125 "/></g></g></g><g fill="#ffffff" fill-opacity="1"><g transform="translate(499.726469, 459.971541)"><g><path d="M 24.9375 -84.671875 C 27.332031 -84.671875 29.207031 -84.007812 30.5625 -82.6875 C 31.914062 -81.375 32.59375 -79.640625 32.59375 -77.484375 C 32.59375 -75.003906 31.722656 -72.757812 29.984375 -70.75 C 28.242188 -68.738281 25.785156 -67.734375 22.609375 -67.734375 C 20.210938 -67.734375 18.335938 -68.390625 16.984375 -69.703125 C 15.640625 -71.015625 14.96875 -72.753906 14.96875 -74.921875 C 14.96875 -77.398438 15.835938 -79.644531 17.578125 -81.65625 C 19.316406 -83.664062 21.769531 -84.671875 24.9375 -84.671875 Z M 17.984375 0 L 1.96875 0 L 12.984375 -61.703125 L 28.875 -61.703125 Z M 17.984375 0 "/></g></g></g><g fill="#ffffff" fill-opacity="1"><g transform="translate(524.893893, 459.971541)"><g><path d="M 44.65625 -63.21875 C 46.351562 -63.21875 47.820312 -63.0625 49.0625 -62.75 L 46.734375 -49.875 C 43.179688 -50.257812 39.800781 -49.910156 36.59375 -48.828125 C 33.382812 -47.742188 30.597656 -45.597656 28.234375 -42.390625 C 25.878906 -39.179688 24.125 -34.484375 22.96875 -28.296875 L 17.984375 0 L 1.96875 0 L 12.765625 -61.46875 L 28.765625 -61.46875 L 26.796875 -50.21875 L 33.40625 -59.03125 C 35.101562 -60.425781 36.976562 -61.472656 39.03125 -62.171875 C 41.082031 -62.867188 42.957031 -63.21875 44.65625 -63.21875 Z M 44.65625 -63.21875 "/></g></g></g><g fill="#ffffff" fill-opacity="1"><g transform="translate(562.703078, 459.971541)"><g><path d="M 24.9375 -84.671875 C 27.332031 -84.671875 29.207031 -84.007812 30.5625 -82.6875 C 31.914062 -81.375 32.59375 -79.640625 32.59375 -77.484375 C 32.59375 -75.003906 31.722656 -72.757812 29.984375 -70.75 C 28.242188 -68.738281 25.785156 -67.734375 22.609375 -67.734375 C 20.210938 -67.734375 18.335938 -68.390625 16.984375 -69.703125 C 15.640625 -71.015625 14.96875 -72.753906 14.96875 -74.921875 C 14.96875 -77.398438 15.835938 -79.644531 17.578125 -81.65625 C 19.316406 -83.664062 21.769531 -84.671875 24.9375 -84.671875 Z M 17.984375 0 L 1.96875 0 L 12.984375 -61.703125 L 28.875 -61.703125 Z M 17.984375 0 "/></g></g></g><g fill="#ffffff" fill-opacity="1"><g transform="translate(587.870502, 459.971541)"><g><path d="M 48.828125 -63.328125 C 55.171875 -63.328125 59.890625 -61.859375 62.984375 -58.921875 C 66.078125 -55.984375 67.625 -52.191406 67.625 -47.546875 C 67.625 -45.929688 67.523438 -44.253906 67.328125 -42.515625 C 67.128906 -40.773438 66.722656 -38.359375 66.109375 -35.265625 L 59.84375 0 L 43.84375 0 L 49.640625 -32.359375 C 50.023438 -34.597656 50.332031 -36.546875 50.5625 -38.203125 C 50.800781 -39.867188 50.921875 -41.285156 50.921875 -42.453125 C 50.921875 -45.304688 50.164062 -47.625 48.65625 -49.40625 C 47.144531 -51.1875 44.570312 -52.078125 40.9375 -52.078125 C 36.914062 -52.003906 33.28125 -50.109375 30.03125 -46.390625 C 26.789062 -42.679688 24.394531 -36.535156 22.84375 -27.953125 L 17.984375 0 L 1.96875 0 L 12.875 -61.703125 L 28.765625 -61.703125 L 27.140625 -52.3125 L 33.171875 -59.03125 C 35.648438 -60.582031 38.144531 -61.6875 40.65625 -62.34375 C 43.164062 -63 45.890625 -63.328125 48.828125 -63.328125 Z M 48.828125 -63.328125 "/></g></g></g><g fill="#ffffff" fill-opacity="1"><g transform="translate(654.326593, 459.971541)"><g><path d="M 73.421875 -61.703125 L 65.296875 -15.421875 C 64.984375 -13.492188 64.613281 -11.445312 64.1875 -9.28125 C 63.769531 -7.113281 63.367188 -5.179688 62.984375 -3.484375 C 61.046875 6.109375 57.019531 13.257812 50.90625 17.96875 C 44.800781 22.6875 36.257812 25.046875 25.28125 25.046875 C 16.78125 25.046875 10.207031 23.226562 5.5625 19.59375 C 0.925781 15.96875 -1.117188 10.75 -0.578125 3.9375 L -0.46875 2.78125 L 15.1875 2.78125 L 15.078125 3.828125 C 14.921875 6.691406 15.941406 8.953125 18.140625 10.609375 C 20.347656 12.273438 23.539062 13.109375 27.71875 13.109375 C 32.59375 13.109375 36.691406 11.867188 40.015625 9.390625 C 43.335938 6.921875 45.578125 3.210938 46.734375 -1.734375 C 46.972656 -2.898438 47.226562 -4.117188 47.5 -5.390625 C 47.769531 -6.671875 48.019531 -7.96875 48.25 -9.28125 L 48.359375 -9.96875 L 42.328125 -3.015625 C 38.234375 -0.148438 32.898438 1.28125 26.328125 1.28125 C 18.597656 1.28125 12.703125 -0.957031 8.640625 -5.4375 C 4.578125 -9.925781 2.546875 -15.804688 2.546875 -23.078125 C 2.546875 -28.109375 3.300781 -33.019531 4.8125 -37.8125 C 6.320312 -42.601562 8.582031 -46.910156 11.59375 -50.734375 C 14.613281 -54.566406 18.421875 -57.625 23.015625 -59.90625 C 27.617188 -62.1875 32.976562 -63.328125 39.09375 -63.328125 C 41.644531 -63.328125 44.253906 -62.976562 46.921875 -62.28125 C 49.585938 -61.582031 51.613281 -60.617188 53 -59.390625 L 55.90625 -52.765625 L 57.53125 -61.703125 Z M 32.25 -9.96875 C 35.1875 -9.96875 37.988281 -10.601562 40.65625 -11.875 C 43.320312 -13.15625 45.640625 -15.285156 47.609375 -18.265625 C 49.578125 -21.242188 50.988281 -25.207031 51.84375 -30.15625 L 51.734375 -29.109375 L 52.546875 -33.75 L 52.421875 -33.171875 C 52.960938 -36.421875 52.941406 -39.472656 52.359375 -42.328125 C 51.785156 -45.191406 50.472656 -47.53125 48.421875 -49.34375 C 46.367188 -51.164062 43.453125 -52.078125 39.671875 -52.078125 C 35.566406 -52.078125 32.003906 -50.800781 28.984375 -48.25 C 25.972656 -45.695312 23.65625 -42.367188 22.03125 -38.265625 C 20.40625 -34.171875 19.59375 -29.804688 19.59375 -25.171875 C 19.59375 -20.222656 20.695312 -16.453125 22.90625 -13.859375 C 25.113281 -11.265625 28.226562 -9.96875 32.25 -9.96875 Z M 32.25 -9.96875 "/></g></g></g></g></g></g></svg>